<svg width="1200" height="900" viewBox="0 0 1200 900" fill="none" xmlns="http://www.w3.org/2000/svg">
  <rect width="1200" height="900" rx="48" fill="url(#bg)"/>
  <circle cx="947" cy="164" r="186" fill="url(#glow)" fill-opacity="0.9"/>
  <path d="M185 658C185 620.445 215.445 590 253 590H947C984.555 590 1015 620.445 1015 658C1015 695.555 984.555 726 947 726H253C215.445 726 185 695.555 185 658Z" fill="#E0F2FE" fill-opacity="0.72"/>
  <circle cx="372" cy="650" r="102" fill="#0F172A"/>
  <circle cx="372" cy="650" r="60" fill="#CBD5E1"/>
  <circle cx="848" cy="650" r="102" fill="#0F172A"/>
  <circle cx="848" cy="650" r="60" fill="#CBD5E1"/>
  <path d="M712 252C748.451 252 778 281.549 778 318V364H742V324C742 303.013 724.987 286 704 286H694V252H712Z" fill="#0F172A"/>
  <path d="M720 276L848 614H786L672 356L720 276Z" fill="#0F172A"/>
  <path d="M470 606L646 316H736L564 606H470Z" fill="#0F172A"/>
  <path d="M388 604C388 589.641 399.641 578 414 578H670C684.359 578 696 589.641 696 604C696 618.359 684.359 630 670 630H414C399.641 630 388 618.359 388 604Z" fill="#38BDF8"/>
  <path d="M548 286C548 257.281 571.281 234 600 234H646C674.719 234 698 257.281 698 286V316H548V286Z" fill="#0F172A"/>
  <path d="M562 252H692V334H562V252Z" fill="#1E293B"/>
  <path d="M610 202H660V252H610V202Z" fill="#0F172A"/>
  <rect x="168" y="116" width="256" height="66" rx="33" fill="#FFFFFF" fill-opacity="0.75"/>
  <text x="208" y="160" fill="#0F172A" font-family="Arial, Helvetica, sans-serif" font-size="34" font-weight="700">SF City Edition</text>
  <text x="168" y="792" fill="#0F172A" font-family="Arial, Helvetica, sans-serif" font-size="72" font-weight="800">Stable and sleek for daily downtown rides.</text>
  <text x="168" y="846" fill="#334155" font-family="Arial, Helvetica, sans-serif" font-size="32" font-weight="500">Tap the card to inspect the full 3D model in the homepage viewer.</text>
  <defs>
    <linearGradient id="bg" x1="1200" y1="78" x2="40" y2="900" gradientUnits="userSpaceOnUse">
      <stop stop-color="#D7F1FF"/>
      <stop offset="0.52" stop-color="#F8FAFC"/>
      <stop offset="1" stop-color="#DBEAFE"/>
    </linearGradient>
    <radialGradient id="glow" cx="0" cy="0" r="1" gradientUnits="userSpaceOnUse" gradientTransform="translate(947 164) rotate(90) scale(186)">
      <stop stop-color="#38BDF8"/>
      <stop offset="1" stop-color="#38BDF8" stop-opacity="0"/>
    </radialGradient>
  </defs>
</svg>
