<svg xmlns="http://www.w3.org/2000/svg" viewBox="0 0 64 64">
  <rect width="64" height="64" rx="14" fill="#0f172a"/>
  <path d="M18 44h21a4 4 0 0 0 3.9-3.1l1.7-7.4A9 9 0 0 1 52 26l-1.2-5.5H45a3 3 0 0 1 0-6h6.5a4 4 0 0 1 3.9 3.2l2.1 10.3a3 3 0 0 1-2.7 3.6 4 4 0 1 0 1.8 3.4c0-.5-.1-1-.3-1.5a15 15 0 0 0-5.9 2.4 15.2 15.2 0 0 0-5.9 8.7A8 8 0 0 1 36.8 50H18a3 3 0 0 1 0-6Z" fill="#38bdf8"/>
  <circle cx="17" cy="47" r="7" fill="#f8fafc"/>
  <circle cx="17" cy="47" r="3" fill="#0f172a"/>
  <circle cx="52" cy="47" r="7" fill="#f8fafc"/>
  <circle cx="52" cy="47" r="3" fill="#0f172a"/>
</svg>
