<?xml version="1.0" standalone="no"?><!DOCTYPE svg PUBLIC "-//W3C//DTD SVG 1.1//EN" "http://www.w3.org/Graphics/SVG/1.1/DTD/svg11.dtd"><svg t="1775654503295" class="icon" viewBox="0 0 1024 1024" version="1.1" xmlns="http://www.w3.org/2000/svg" p-id="2831" xmlns:xlink="http://www.w3.org/1999/xlink" width="200" height="200"><path d="M446.368 646.88l0 39.136 133.12 0 0-39.136-34.72 0 0-133.504 34.72 0L579.488 474.24l-133.12 0 0 39.136 32.896 0 0 133.504L446.368 646.88zM278.496 646.88l0 39.136 133.12 0 0-39.136-34.688 0 0-133.504 34.688 0L411.616 474.24l-133.12 0 0 39.136 32.896 0 0 133.504L278.496 646.88zM746.272 703.744 277.632 703.744l0 34.368L255.616 738.112l0 33.44 520 0 0-33.44-29.344 0L746.272 703.744zM800.992 440l-289.024-188.096L222.88 440l32.736 0 0-0.288 67.104 0 0 1.376 385.824 0 0-1.376 67.104 0 0 0.288L800.992 440zM512.128 420.384c-26.304 0-47.552-21.888-47.552-48.864s21.248-48.896 47.552-48.896c26.24 0 47.488 21.92 47.488 48.896S538.368 420.384 512.128 420.384zM614.272 646.88l0 39.136 133.12 0 0-39.136-34.72 0 0-133.504 34.72 0L747.392 474.24l-133.12 0 0 39.136 32.832 0 0 133.504L614.272 646.88z" fill="#040000" p-id="2832"></path></svg>