<?xml version="1.0" standalone="no"?><!DOCTYPE svg PUBLIC "-//W3C//DTD SVG 1.1//EN" "http://www.w3.org/Graphics/SVG/1.1/DTD/svg11.dtd"><svg t="1775704647882" class="icon" viewBox="0 0 1024 1024" version="1.1" xmlns="http://www.w3.org/2000/svg" p-id="1808" xmlns:xlink="http://www.w3.org/1999/xlink" width="200" height="200"><path d="M511.872598 99.866499 65.454246 353.461217l0.524956 0 0 121.952516 25.015743 0 0 371.991246L65.979202 847.404979l0 76.347852 150.285818 0 0-77.350692-24.204262 0L192.060759 677.331489c0-29.837562 33.036417-53.970192 73.854055-53.970192 40.769542 0 73.80596 24.13263 73.854055 53.970192l0 169.071673-24.967648 0 0 77.350692 147.421584 0 0-77.350692-24.204262 0L438.018543 677.331489c0-29.837562 33.036417-53.970192 73.854055-53.970192 40.770566 0 73.80596 24.13263 73.854055 53.970192l0 169.071673-24.967648 0 0 77.350692 150.477176 0 0-77.350692L687.030897 846.403163 687.030897 677.331489c0-29.837562 33.036417-53.970192 73.854055-53.970192 40.770566 0 73.806983 24.13263 73.854055 53.970192l0 169.071673-24.967648 0 0 77.350692 147.94654 0 0-76.347852-24.203238 0L933.514661 475.413733l24.203238 0L957.717899 353.461217l0.574075 0L511.872598 99.866499zM601.766978 391.509788l0 29.814026-59.628052 0 0 30.124088 59.628052 0 0 29.814026-59.628052 0 0 69.939909-60.248176 0 0-69.939909-59.96165 0 0-29.814026 59.96165 0 0-30.124088-59.96165 0L421.9291 391.509788l59.96165 0 0-11.69639-78.819137-128.182404 57.574277 0 51.225685 83.259262 51.17759-83.259262 57.5753 0-78.484515 127.633912 0 12.244882L601.766978 391.509788z" p-id="1809" fill="#13227a"></path></svg>