<?xml version="1.0" standalone="no"?><!DOCTYPE svg PUBLIC "-//W3C//DTD SVG 1.1//EN" "http://www.w3.org/Graphics/SVG/1.1/DTD/svg11.dtd"><svg t="1775654454245" class="icon" viewBox="0 0 1024 1024" version="1.1" xmlns="http://www.w3.org/2000/svg" p-id="1658" xmlns:xlink="http://www.w3.org/1999/xlink" width="200" height="200"><path d="M77.785073 846.822091a24.827559 24.827559 0 0 1-22.346076-13.998111 496.869315 496.869315 0 0 1-3.639509-422.75568 24.916638 24.916638 0 0 1 30.159567-13.247303l79.063876 25.578367a24.791927 24.791927 0 0 1-15.270667 47.173634l-57.646766-18.642939a447.837749 447.837749 0 0 0 2.188796 338.627032L138.740483 768.45812a24.789382 24.789382 0 1 1 19.788239 45.455684l-70.868618 30.872198a24.891187 24.891187 0 0 1-9.875031 2.036089z" fill="#CDC1AD" p-id="1659"></path><path d="M933.298718 717.14868h-39.601929a24.814833 24.814833 0 1 1 0-49.629666h39.601929a34.70259 34.70259 0 0 0 0-69.40518h-39.601929a24.814833 24.814833 0 1 1 0-49.629666h39.601929a84.268629 84.268629 0 0 1 0 168.537257z" fill="#0E4F53" p-id="1660"></path><path d="M502.09327 1024c-224.122483 0-406.466968-182.344485-406.466969-406.479694s182.306308-406.466968 406.466969-406.466968 406.466968 182.344485 406.466968 406.466968-182.344485 406.479694-406.466968 406.479694z m0-763.380623c-196.78799 0-356.90093 160.112939-356.90093 356.900929s160.112939 356.90093 356.90093 356.90093S858.994199 814.308296 858.994199 617.520306 698.88126 260.619377 502.09327 260.619377z" fill="#0E4F53" p-id="1661"></path><path d="M502.09327 914.941989c-164.006959 0-297.421683-133.414724-297.421684-297.421683s133.414724-297.408958 297.421684-297.408957 297.421683 133.401998 297.421683 297.408957-133.452901 297.421683-297.421683 297.421683z m0-545.264602c-136.659741 0-247.842919 111.183178-247.842919 247.842919s111.183178 247.855644 247.842919 247.855645 247.842919-111.183178 247.842918-247.855645S638.75301 369.677387 502.09327 369.677387z" fill="#CDC1AD" p-id="1662"></path><path d="M578.891997 181.797286h-159.832977a90.898643 90.898643 0 0 1 0-181.797286h159.832977a90.898643 90.898643 0 0 1 0 181.797286zM419.05902 49.566039a41.358055 41.358055 0 0 0 0 82.71611h159.832977a41.358055 41.358055 0 0 0 0-82.71611z" fill="#0E4F53" p-id="1663"></path><path d="M432.815345 265.404186a25.31113 25.31113 0 0 1-5.217477-0.534474 24.814833 24.814833 0 0 1-19.088334-29.43421l15.270667-71.49217a24.791927 24.791927 0 0 1 48.484366 10.384053l-15.270666 71.479445a24.789382 24.789382 0 0 1-24.178556 19.597356zM559.905468 259.652234a24.789382 24.789382 0 0 1-24.178555-19.597355l-15.270667-71.46672a24.790655 24.790655 0 1 1 48.484367-10.371327l15.270666 71.466719a24.827559 24.827559 0 0 1-19.088333 29.43421 25.132972 25.132972 0 0 1-5.217478 0.534473zM497.130303 637.843018a24.789382 24.789382 0 0 1-24.776657-24.789382V434.603171a24.814833 24.814833 0 1 1 49.629667 0v178.450465a24.789382 24.789382 0 0 1-24.85301 24.789382z" fill="#0E4F53" p-id="1664"></path><path d="M635.927937 677.495849a24.916638 24.916638 0 0 1-6.808172-0.954416l-138.797634-39.691008a24.789382 24.789382 0 0 1 0-47.669931l138.83581-39.614654a24.789382 24.789382 0 0 1 17.815778 1.654322l79.318387 39.665557a24.776657 24.776657 0 0 1 0 44.335835l-79.318387 39.652831a24.763931 24.763931 0 0 1-11.045782 2.621464z m-48.586171-64.442213l46.130139 13.17095 26.354625-13.17095-26.354625-13.107322z" fill="#9B4537" p-id="1665"></path></svg>